<svg version="1.1" id="Uploaded to svgrepo.com" xmlns="http://www.w3.org/2000/svg" xmlns:xlink="http://www.w3.org/1999/xlink" x="0px" y="0px"
	 width="32px" height="32px" viewBox="0 0 32 32" style="enable-background:new 0 0 32 32;" xml:space="preserve">
<style type="text/css">
	.sharpcorners_een{fill:#fff;}
	.st0{fill:#0B1719;}
</style>
<path class="sharpcorners_een" d="M2,2v24h10l4,4l4-4h10V2H2z M17,17h-1v-1h1V17z M17,13.95V15h-1v-2h0.5c0.827,0,1.5-0.673,1.5-1.5
	S17.327,10,16.5,10S15,10.673,15,11.5V12h-1v-0.5c0-1.378,1.121-2.5,2.5-2.5s2.5,1.122,2.5,2.5C19,12.708,18.14,13.717,17,13.95z"/>
</svg>